PathFileType	4	(X/Y/Z)	 s10c0203.trc
DataRate	CameraRate	NumFrames	NumMarkers	Units	OrigDataRate	OrigDataStartFrame	OrigNumFrames
200	200	4	49	mm	200	751	2000
Frame#	Time	racr			lacr			c7			jug			rlel			rdr			llel			ldr			s2			lic			ric			lasi			rasi			rpsi			lpsi			rgt			lgt			rth1			rth2			rth3			rth4			rlfc			rmfc			rsh1			rsh2			rsh3			rsh4			rlmal			rmmal			rcal			rtoe			rmt5			lth1			lth2			lth4			lth3			llfc			lmfc			llmal			lcal			lmt5			lsh1			lsh2			lsh3			lsh4			ltoe			SBIKE			LBIKE			RBIKE			
		X1	Y1	Z1	X2	Y2	Z2	X3	Y3	Z3	X4	Y4	Z4	X5	Y5	Z5	X6	Y6	Z6	X7	Y7	Z7	X8	Y8	Z8	X9	Y9	Z9	X10	Y10	Z10	X11	Y11	Z11	X12	Y12	Z12	X13	Y13	Z13	X14	Y14	Z14	X15	Y15	Z15	X16	Y16	Z16	X17	Y17	Z17	X18	Y18	Z18	X19	Y19	Z19	X20	Y20	Z20	X21	Y21	Z21	X22	Y22	Z22	X23	Y23	Z23	X24	Y24	Z24	X25	Y25	Z25	X26	Y26	Z26	X27	Y27	Z27	X28	Y28	Z28	X29	Y29	Z29	X30	Y30	Z30	X31	Y31	Z31	X32	Y32	Z32	X33	Y33	Z33	X34	Y34	Z34	X35	Y35	Z35	X36	Y36	Z36	X37	Y37	Z37	X38	Y38	Z38	X39	Y39	Z39	X40	Y40	Z40	X41	Y41	Z41	X42	Y42	Z42	X43	Y43	Z43	X44	Y44	Z44	X45	Y45	Z45	X46	Y46	Z46	X47	Y47	Z47	X48	Y48	Z48	X49	Y49	Z49	
751	3.7550	486.638502	1238.616854	-85.217047	449.342999	1238.251272	-381.447251	423.882194	1295.866556	-218.171856	418.897295	1146.641144	-213.093839	442.777035	1024.774167	80.315744	600.044875	909.884762	5.333854	444.930995	993.810392	-520.571659	615.333815	912.491059	-400.176149	-89.891333	1089.582023	-206.511638	67.340241	1120.077237	-342.632121	86.883752	1093.437264	-62.912328	112.275191	1036.355687	-327.248516	95.179774	1018.917833	-66.950710	-48.513260	1144.826203	-142.508360	-44.520524	1158.566376	-252.774997	-26.535155	985.948539	-20.855251	-0.396452	994.894826	-401.859999	55.139566	860.165637	5.477907	127.379258	808.211496	-3.440399	161.690640	730.379622	-8.537541	154.984436	832.734104	-6.524263	223.992289	641.803789	-19.049411	232.250320	640.093131	-135.374816	140.242971	559.643011	-1.158676	113.910715	477.429525	-22.052996	50.769745	419.820293	-35.387638	142.218336	465.411186	-45.346503	-7.243808	339.750391	-58.983786	28.905885	339.962490	-135.802543	-51.938224	352.796940	-112.287402	124.652644	186.480482	-92.197450	40.265258	217.708264	-37.451074	109.711121	924.527309	-403.349006	194.161771	923.250407	-383.639195	202.267552	956.665698	-371.437759	269.298183	876.895631	-376.412053	380.372228	833.699369	-349.892352	367.758589	823.787568	-227.105567	199.861491	504.748683	-371.169041	138.953509	464.451443	-331.366573	314.975728	425.001313	-387.452048	312.855529	735.605324	-384.750321	300.879979	648.622403	-375.217312	244.930035	580.117820	-379.083831	325.553660	639.742788	-347.594011	383.488902	463.297276	-331.830283	-204.262338	831.633971	-223.730254	-78.154336	81.839798	-423.695568	-102.616563	80.547205	-24.409785	
752	3.7600	485.091751	1236.368824	-84.671234	449.953386	1237.762586	-381.252230	424.171394	1293.916948	-218.591940	418.770886	1144.665652	-214.023351	442.463775	1023.896203	81.507690	599.424081	909.626953	5.129626	445.021727	993.157349	-520.834615	615.144081	912.347604	-400.200668	-89.743384	1088.299150	-204.532153	66.257179	1119.652909	-343.287694	87.715346	1092.329167	-63.452143	111.640780	1035.346724	-328.184690	94.684521	1018.746516	-68.727931	-49.456256	1143.953245	-140.111779	-45.232712	1157.426193	-251.313631	-24.719346	984.825150	-19.300643	-2.157663	992.842351	-400.805390	58.361712	860.761351	6.718074	130.689289	809.176454	-3.057745	165.232485	731.560288	-8.563275	158.189750	833.783950	-6.669065	227.714809	643.682633	-19.683404	232.724037	642.295335	-136.336955	142.560314	562.977421	-1.425554	114.342965	481.395714	-22.600632	49.979291	425.118162	-35.629440	142.136407	469.115630	-46.355337	-10.460494	346.819038	-59.302198	25.473652	346.377636	-136.166207	-55.142137	361.052381	-112.057399	119.879883	192.316521	-92.446357	35.784651	224.312941	-37.722802	108.282550	921.784709	-402.176277	192.994333	919.847300	-383.482076	201.477610	953.430133	-371.670171	267.807961	872.696171	-376.492540	378.530598	826.746461	-350.591667	366.450949	817.506914	-228.210029	203.566991	496.002984	-370.609387	142.908507	455.673112	-331.424248	319.450976	418.081825	-387.247944	312.848604	728.780783	-384.622096	302.777289	641.692849	-374.378291	248.690270	571.668471	-378.055875	327.391923	633.631167	-346.479234	387.555407	457.299788	-331.732269	-204.241132	831.622390	-223.649259	-78.167933	81.827980	-423.686938	-102.614813	80.553178	-24.412620	
753	3.7650	483.364654	1234.158845	-83.814112	450.683183	1237.320073	-381.110643	424.527310	1292.139857	-218.598530	418.562960	1142.719642	-214.995244	441.761615	1022.869378	82.696410	598.914014	909.535177	5.349184	445.087549	992.719283	-521.031548	614.925679	912.204910	-400.265975	-89.513679	1087.006268	-202.691753	65.247603	1119.290725	-344.133397	88.589213	1091.228019	-64.040398	111.121606	1034.501895	-329.106655	95.386922	1018.044880	-69.259552	-49.065610	1142.595964	-139.089282	-45.811868	1156.412840	-250.138461	-22.903255	983.883090	-17.724153	-3.878950	990.600551	-399.724165	61.544609	861.362103	7.329259	133.856439	810.243514	-2.617966	168.668917	732.666371	-8.534658	161.103145	835.004711	-6.485751	231.403027	645.642689	-20.336443	233.171646	644.377897	-137.296949	144.769084	566.522556	-1.702295	114.752272	485.611061	-23.127934	49.201162	430.791170	-35.790643	142.079874	472.996448	-47.255198	-13.399435	353.950480	-59.544851	22.530573	353.099013	-136.551193	-57.946865	368.039612	-112.782009	115.379208	198.331488	-92.692263	31.544006	231.139976	-37.970116	107.374383	919.176194	-401.036595	192.398637	916.824411	-383.544278	201.325738	950.663525	-372.464722	267.080994	869.157682	-376.253572	376.905666	820.889849	-350.444311	366.000028	811.216575	-229.548858	207.253987	487.941510	-370.678204	146.546842	447.234957	-331.539950	323.690220	411.161211	-387.041425	312.897335	722.308858	-384.522606	304.583838	635.057464	-373.765873	251.749251	564.419645	-378.536588	329.157055	627.691310	-345.707478	391.517421	450.785797	-331.540756	-204.228617	831.615700	-223.608721	-78.165773	81.838823	-423.691416	-102.622909	80.547611	-24.396467	
754	3.7700	481.396227	1232.172172	-82.643878	451.547810	1236.832738	-380.889899	424.856082	1290.740855	-218.635894	418.018713	1140.872944	-216.499608	441.020360	1021.904522	84.083870	598.388954	909.476661	5.720173	445.219843	992.315134	-521.327470	614.710581	912.100517	-400.383913	-89.224299	1085.808808	-201.014695	64.266438	1118.876932	-345.187764	89.363221	1090.434270	-64.674231	110.592056	1033.865982	-330.201320	96.657104	1016.736151	-71.414344	-48.740697	1141.972307	-138.150257	-46.304438	1155.454740	-248.997532	-21.039734	983.125666	-16.356994	-5.456282	988.112268	-398.713669	64.528048	862.136008	8.253974	136.925484	811.435922	-2.338866	172.018329	733.896618	-8.670938	163.991155	836.336143	-6.705167	235.006977	647.668173	-21.111422	233.529036	646.315376	-138.026917	146.987905	570.346834	-2.017496	115.190810	490.152463	-23.538326	48.451923	436.671863	-35.926854	142.021946	477.126291	-48.044660	-16.180724	361.385411	-59.849819	19.734420	360.133216	-136.820098	-60.850158	376.418517	-112.514529	111.239335	204.708482	-92.864447	27.666823	238.077081	-38.233218	106.865037	916.759140	-400.113913	192.175228	913.803300	-383.542858	201.373010	947.761788	-372.660217	266.678756	865.751911	-376.306536	375.372251	815.588253	-350.490604	365.497291	805.042743	-230.252655	210.868720	479.888308	-370.258213	150.302783	439.059520	-331.333829	327.710530	404.011625	-386.719467	313.149456	715.912346	-384.648183	306.284982	628.523224	-373.552740	254.811566	556.951453	-378.368403	330.753390	621.737385	-345.214996	395.301996	444.037407	-331.149168	-204.211247	831.611700	-223.593246	-78.162198	81.849698	-423.702598	-102.589415	80.501355	-24.399839	
